<?xml version="1.0" encoding="UTF-8"?>
<svg width="82px" height="88px" viewBox="0 0 82 88" version="1.1" xmlns="http://www.w3.org/2000/svg" xmlns:xlink="http://www.w3.org/1999/xlink">
    <!-- Generator: Sketch 43.1 (39012) - http://www.bohemiancoding.com/sketch -->
    <title>Group 22</title>
    <desc>Created with Sketch.</desc>
    <defs></defs>
    <g id="Page-1" stroke="none" stroke-width="1" fill="none" fill-rule="evenodd">
        <g id="Desktop-HD-Copy-32" transform="translate(-341.000000, -3464.000000)">
            <g id="Group-34" transform="translate(252.000000, 3352.000000)">
                <g id="Group-29" transform="translate(0.000000, 112.000000)">
                    <g id="Group-27">
                        <g id="Group-22" transform="translate(89.000000, 0.000000)">
                            <ellipse id="Oval-2" fill="#F0244D" cx="23.6328358" cy="23.6709402" rx="23.6328358" ry="23.6709402"></ellipse>
                            <path d="M81.7062873,62.6001596 C81.7062873,62.581587 81.7086654,62.5638782 81.7086654,62.5461694 C81.7086654,62.5418502 81.7078006,62.5377469 81.7078006,62.5334277 C81.7078006,62.5038411 81.7054225,62.4751183 81.7028281,62.4457476 C81.7019634,62.4312783 81.7010986,62.4170249 81.7002338,62.4027714 C81.6969909,62.3772881 81.692667,62.3520206 81.6885593,62.3267532 C81.6851002,62.3081806 81.6825059,62.289608 81.6783982,62.2718992 C81.6740743,62.2524627 81.6691018,62.2330262 81.6639132,62.2138057 C81.6572111,62.19005 81.6513739,62.1673742 81.6438071,62.1444823 C81.6394832,62.129365 81.633646,62.1148957 81.6275925,62.0997784 C81.6182962,62.0736472 81.6083512,62.0475159 81.5973253,62.0213846 C81.594731,62.0179293 81.5938662,62.013826 81.5921366,62.0095068 L67.8722279,31.8577061 L67.8722279,27.9054072 L67.9584894,27.9054072 C69.4363939,27.9054072 70.6388668,26.7042332 70.6388668,25.2279251 L70.6388668,25.0221144 C70.6388668,23.7008662 69.691287,22.5890999 68.3856894,22.37897 L45.7334954,18.7270727 L45.7334954,16.4072217 C46.5933003,15.4446843 47.1175715,14.1767784 47.1175715,12.7881504 C47.1175715,9.78759083 44.6737108,7.34615385 41.6688257,7.34615385 C38.6650216,7.34615385 36.2209446,9.78759083 36.2209446,12.7881504 C36.2209446,14.1767784 36.7454321,15.4446843 37.6050207,16.4072217 L37.6050207,18.6013835 L14.9392065,22.3748668 C13.6413919,22.5908276 12.6987846,23.70173 12.6987846,25.0160675 L12.6987846,25.2279251 C12.6987846,26.7042332 13.9014737,27.9054072 15.3802429,27.9054072 L15.4662883,27.9054072 L15.4662883,31.8577061 L1.74637949,62.0095068 C1.74464994,62.013826 1.74292038,62.0179293 1.74140702,62.0213846 C1.73038111,62.0475159 1.72021998,62.0736472 1.71092362,62.0997784 C1.70508638,62.1142478 1.69903293,62.129365 1.69406046,62.1444823 C1.68649366,62.1673742 1.68044022,62.19005 1.67460297,62.2138057 C1.6696305,62.2330262 1.66357706,62.2524627 1.65946937,62.2718992 C1.65601026,62.289608 1.65255115,62.3081806 1.65017301,62.3267532 C1.64584913,62.3520206 1.64087666,62.3772881 1.63828233,62.4027714 C1.63655277,62.4170249 1.63655277,62.4312783 1.63482322,62.4457476 C1.63244508,62.4751183 1.63071552,62.5038411 1.63071552,62.5334277 C1.63071552,62.5377469 1.62985075,62.5418502 1.62985075,62.5453056 C1.62985075,62.5638782 1.6315803,62.581587 1.6315803,62.6001596 C1.63244508,62.614413 1.63244508,62.6295303 1.63417463,62.6439997 C1.71438273,67.9736966 8.32928085,72.1343976 16.7634543,72.1343976 C25.1976278,72.1343976 31.8125259,67.9736966 31.8935988,62.6439997 C31.8944635,62.6295303 31.8944635,62.614413 31.8953283,62.6001596 C31.8953283,62.581587 31.8970579,62.5638782 31.8970579,62.5461694 C31.8970579,62.5418502 31.8970579,62.5377469 31.8961931,62.5334277 C31.8961931,62.5047049 31.8944635,62.4751183 31.8920854,62.4457476 C31.8912206,62.4312783 31.8903558,62.4170249 31.8886263,62.4027714 C31.886032,62.3772881 31.8819243,62.3520206 31.8767356,62.3267532 C31.8743575,62.3081806 31.8717631,62.2904718 31.8674392,62.2718992 C31.8633315,62.2524627 31.8572781,62.2330262 31.8523056,62.2138057 C31.8464684,62.1909139 31.8404149,62.1673742 31.8328481,62.1444823 C31.8278757,62.129365 31.8218222,62.1148957 31.8168498,62.0997784 C31.8066886,62.0736472 31.7973923,62.0475159 31.7855016,62.0222485 C31.7839882,62.0179293 31.7831234,62.013826 31.7805291,62.0095068 L18.0606203,31.8577061 L18.0606203,27.9054072 L37.6050207,27.9054072 L37.6050207,56.0571949 C36.7808879,56.5143839 36.2209446,57.3924806 36.2209446,58.398858 L36.2209446,77.4878501 L28.0038303,80.0532486 C26.2980569,80.585592 25.1520108,82.1428855 25.1520108,83.9278016 L25.1520108,86.041842 C25.1520108,86.758184 25.7329249,87.3376068 26.4491768,87.3376068 L56.8895556,87.3376068 C57.6055912,87.3376068 58.1867216,86.758184 58.1867216,86.041842 L58.1867216,83.9278016 C58.1867216,82.1428855 57.0406754,80.585592 55.3346859,80.0523848 L47.1175715,77.4878501 L47.1175715,58.398858 C47.1175715,57.3924806 46.5576282,56.5143839 45.7334954,56.0571949 L45.7334954,27.9054072 L65.2778958,27.9054072 L65.2778958,31.8577061 L51.5573384,62.0095068 C51.5556089,62.013826 51.5547441,62.0179293 51.5521498,62.0222485 C51.5411239,62.0475159 51.5318275,62.0736472 51.5216664,62.0997784 C51.5158291,62.1148957 51.5108567,62.129365 51.505668,62.1444823 C51.4981012,62.1673742 51.4922639,62.1909139 51.4853457,62.2138057 C51.4803733,62.2330262 51.4754008,62.2524627 51.4710769,62.2718992 C51.4669692,62.2904718 51.4643749,62.3081806 51.4609158,62.3267532 C51.4568081,62.3520206 51.4524842,62.3772881 51.4492413,62.4027714 C51.4483765,62.4170249 51.4475117,62.4312783 51.4466469,62.4457476 C51.4440526,62.4751183 51.4423231,62.5047049 51.4414583,62.5334277 C51.4414583,62.5377469 51.4405935,62.5418502 51.4405935,62.5461694 C51.4405935,62.5638782 51.4431878,62.581587 51.4431878,62.6001596 C51.4440526,62.614413 51.4431878,62.6295303 51.4449174,62.6439997 C51.5259903,67.9736966 58.1411046,72.1343976 66.5750618,72.1343976 C75.0092353,72.1343976 81.6234848,67.9736966 81.7045577,62.6439997 C81.7062873,62.6295303 81.7054225,62.614413 81.7062873,62.6001596 Z M16.7634543,35.2701029 L28.5858254,61.2504045 L4.94194798,61.2504045 L16.7634543,35.2701029 Z M16.7634543,69.5428678 C10.7573594,69.5428678 5.57453261,67.0407458 4.45053826,63.8419343 L29.0772351,63.8419343 C27.952376,67.0407458 22.7695492,69.5428678 16.7634543,69.5428678 Z M44.5232395,58.398858 L44.5232395,77.1444725 L38.8152766,77.1444725 L38.8152766,58.398858 C38.8152766,58.3517785 38.8541916,58.3129056 38.9021868,58.3129056 L44.4363294,58.3129056 C44.4845407,58.3129056 44.5232395,58.3517785 44.5232395,58.398858 Z M40.1993528,55.7213758 L40.1993528,18.0277916 C40.6671973,18.1584479 41.159688,18.2301469 41.6688257,18.2301469 C42.1790443,18.2301469 42.6713188,18.1584479 43.1391634,18.0277916 L43.1391634,55.7213758 L40.1993528,55.7213758 Z M41.6688257,9.93768359 C43.2429366,9.93768359 44.5232395,11.2166035 44.5232395,12.7881504 C44.5232395,14.3599132 43.2429366,15.6386171 41.6688257,15.6386171 C40.0955795,15.6386171 38.8152766,14.3599132 38.8152766,12.7881504 C38.8152766,11.2166035 40.0955795,9.93768359 41.6688257,9.93768359 Z M15.3802429,25.3138775 C15.3320316,25.3138775 15.2931166,25.2752205 15.2931166,25.2279251 L15.2931166,25.0160675 C15.2931166,24.9739552 15.3236,24.9385376 15.3657579,24.930979 L37.6050207,21.2283308 L37.6050207,25.3138775 L15.3802429,25.3138775 Z M55.5923895,83.9278016 L55.5923895,84.7460771 L27.7463428,84.7460771 L27.7463428,83.9278016 C27.7463428,83.2825107 28.1610035,82.7190689 28.7782384,82.5266478 L37.716577,79.7360022 L45.6219391,79.7360022 L54.5602778,82.5266478 C55.1777288,82.7190689 55.5923895,83.2825107 55.5923895,83.9278016 Z M45.7334954,21.3522923 L67.9718934,24.9376737 C68.0142675,24.9443685 68.0445347,24.9797861 68.0445347,25.0229783 L68.0445347,25.2279251 C68.0445347,25.2758684 68.005836,25.3138775 67.9584894,25.3138775 L45.7334954,25.3138775 L45.7334954,21.3522923 Z M66.5750618,35.2701029 L78.3965682,61.2504045 L54.7529069,61.2504045 L66.5750618,35.2701029 Z M66.5750618,69.5428678 C60.5681022,69.5428678 55.3861401,67.0407458 54.261281,63.8419343 L78.8879779,63.8419343 C77.7639835,67.0407458 72.5813729,69.5428678 66.5750618,69.5428678 Z" id="libra" fill="#4A4A4A"></path>
                        </g>
                    </g>
                </g>
            </g>
        </g>
    </g>
</svg>