<svg xmlns="http://www.w3.org/2000/svg" xmlns:xlink="http://www.w3.org/1999/xlink" width="15" height="16" viewBox="0 0 15 16">
    <defs>
        <path id="a" d="M.002.032v14.18h14.993V.033H.002z"/>
    </defs>
    <g fill="none" fill-rule="evenodd">
        <path fill="#C5C5C5" d="M5.417 8.819c0-.2-.156-.362-.348-.362H3.854a.355.355 0 0 0-.347.362v1.263c0 .2.155.362.347.362H5.07a.355.355 0 0 0 .348-.362V8.819zM8.453 8.819c0-.2-.156-.362-.348-.362H6.89a.355.355 0 0 0-.348.362v1.263c0 .2.156.362.348.362h1.215a.355.355 0 0 0 .348-.362V8.819zM11.488 8.819c0-.2-.156-.362-.348-.362H9.926a.355.355 0 0 0-.348.362v1.263c0 .2.155.362.348.362h1.214a.355.355 0 0 0 .348-.362V8.819zM5.417 11.976c0-.2-.156-.362-.348-.362H3.854a.355.355 0 0 0-.347.362v1.263c0 .2.155.362.347.362H5.07a.355.355 0 0 0 .348-.362v-1.263zM8.453 11.976c0-.2-.156-.362-.348-.362H6.89a.355.355 0 0 0-.348.362v1.263c0 .2.156.362.348.362h1.215a.355.355 0 0 0 .348-.362v-1.263z"/>
        <g transform="translate(0 1.756)">
            <mask id="b" fill="#fff">
                <use xlink:href="#a"/>
            </mask>
            <path fill="#C5C5C5" d="M11.488 10.22c0-.2-.156-.362-.348-.362H9.926a.355.355 0 0 0-.348.362v1.263c0 .2.155.362.348.362h1.214a.355.355 0 0 0 .348-.362V10.22z" mask="url(#b)"/>
            <path fill="#C5C5C5" d="M13.66.04v1.929c0 .872-.68 1.574-1.519 1.574h-.957c-.839 0-1.528-.702-1.528-1.574V.032H5.339V1.97c0 .872-.69 1.574-1.528 1.574h-.958c-.838 0-1.518-.702-1.518-1.574V.039C.602.062 0 .693 0 1.468v11.306c0 .79.615 1.439 1.375 1.439H13.62c.758 0 1.375-.65 1.375-1.439V1.468c0-.775-.602-1.406-1.335-1.429zm-.445 12.03a.606.606 0 0 1-.594.618H2.348a.607.607 0 0 1-.595-.618V6.23c0-.341.266-.618.595-.618H12.62c.328 0 .594.277.594.618v5.84z" mask="url(#b)"/>
        </g>
        <path fill="#C5C5C5" d="M2.85 4.265h.947c.288 0 .521-.242.521-.541V.56c0-.3-.233-.541-.52-.541H2.85a.531.531 0 0 0-.521.541v3.163c0 .3.233.541.52.541zM11.171 4.265h.948c.287 0 .52-.242.52-.541V.56c0-.3-.233-.541-.52-.541h-.948a.531.531 0 0 0-.52.541v3.163c0 .3.233.541.52.541z"/>
    </g>
</svg>
