<svg xmlns="http://www.w3.org/2000/svg" xmlns:xlink="http://www.w3.org/1999/xlink" width="20" height="20" viewBox="0 0 20 20">
    <defs>
        <path id="a" d="M19.979 19.979V0H0v19.979z"/>
    </defs>
    <g fill="none" fill-rule="evenodd">
        <mask id="b" fill="#fff">
            <use xlink:href="#a"/>
        </mask>
        <path fill="#BDBDBF" d="M16.649 10.822a.8.8 0 0 1-.247.585.802.802 0 0 1-.586.247h-4.161v4.162a.8.8 0 0 1-.248.586.798.798 0 0 1-.585.247H9.157a.8.8 0 0 1-.585-.247.8.8 0 0 1-.248-.586v-4.162H4.162a.8.8 0 0 1-.585-.247.8.8 0 0 1-.247-.585V9.157a.8.8 0 0 1 .247-.585.8.8 0 0 1 .585-.248h4.163V4.162a.8.8 0 0 1 .247-.585.8.8 0 0 1 .585-.247h1.665a.8.8 0 0 1 .585.247.8.8 0 0 1 .248.585v4.162h4.162c.225 0 .42.083.585.248a.8.8 0 0 1 .247.585v1.665zm2.23-9.723C18.148.366 17.266 0 16.234 0H3.746C2.714 0 1.832.366 1.099 1.099.366 1.832 0 2.714 0 3.746v12.487c0 1.032.366 1.914 1.099 2.647.733.733 1.615 1.099 2.647 1.099h12.487c1.032 0 1.914-.366 2.646-1.1.733-.732 1.1-1.614 1.1-2.646V3.746c0-1.032-.367-1.914-1.1-2.647z" mask="url(#b)"/>
    </g>
</svg>
