<?xml version="1.0" encoding="utf-8"?>
<!-- Generator: Adobe Illustrator 19.0.0, SVG Export Plug-In . SVG Version: 6.00 Build 0)  -->
<svg version="1.1" id="Layer_1" xmlns="http://www.w3.org/2000/svg" xmlns:xlink="http://www.w3.org/1999/xlink" x="0px" y="0px"
	 viewBox="-348.8 375 163 52" style="enable-background:new -348.8 375 163 52;" xml:space="preserve">
<style type="text/css">
	.st0{fill:#FFF200;}
	.st1{fill:#FFFFFF;}
</style>
<path class="st0" d="M-323.8,424.6c-3.2-0.2-6.4-0.4-9.6-0.6c-7.1-0.6-11.7-4.3-13.6-11.2c-2.3-8.7-2.3-17.6,0-26.3
	c1.9-7,6.5-10.8,13.8-11.2c6.4-0.3,12.8-0.3,19.1,0c7.2,0.4,11.8,4.3,13.7,11.4c2.2,8.6,2.2,17.3,0,25.8
	c-1.8,7.2-6.4,10.9-13.8,11.5C-317.4,424.3-320.6,424.4-323.8,424.6"/>
<path class="st1" d="M-269,388.5c2.1,0.6,3.5,2.3,3.5,4.7v0c0,0.4-0.2,0.9-0.9,0.9h-7.5c0.2,1.5,1.6,2.8,3.5,2.8
	c0.9,0,1.8-0.2,2.5-0.8c0.7-0.6,1.6,0.2,0.9,0.9c-0.9,0.8-2.1,1.2-3.4,1.1c-1.5,0-2.9-0.6-3.8-1.7c-2-2.7-1.2-7,2.4-8
	C-271,388.2-270,388.2-269,388.5L-269,388.5L-269,388.5z M-274,392.9h7.1c-0.1-1.6-1.1-2.8-2.6-3.2h0c-0.6-0.2-1.4-0.2-2,0
	C-273,390.1-273.8,391.4-274,392.9"/>
<path class="st1" d="M-259.3,388.4c0.9,0,0.9,1.2,0,1.2h-2.1v5.1c0,1.1,0.2,2.2,1.5,2.2c0.3,0,0.7-0.1,0.9-0.2
	c0.8-0.5,1.4,0.7,0.6,1.1c-0.5,0.3-0.9,0.3-1.5,0.3c-2.3,0-2.8-1.7-2.8-3.5v-5.1h-1.2c-0.9,0-0.8-1.2,0-1.2h1.2v-2.2
	c0-0.9,1.4-0.9,1.4,0v2.2L-259.3,388.4L-259.3,388.4z"/>
<path class="st1" d="M-250,397.9L-250,397.9c-0.6,0.2-1.2,0.3-1.8,0.3c-1.1,0-2.5-0.5-3.1-1.7v0.9c0,0.4-0.2,0.7-0.6,0.7
	c-0.4,0-0.7-0.2-0.7-0.7v-11.4c0-0.9,1.4-0.9,1.4,0v3.8c0.6-1,1.8-1.5,3.1-1.5c2.8,0,4.8,2,4.8,4.7
	C-246.9,395.2-247.9,397.1-250,397.9 M-249.7,396.3c1-0.9,1.4-2,1.4-3.2c0-0.5-0.1-1-0.3-1.4c-0.5-1.3-1.9-2-3.2-2
	c-1.7,0.1-3,1.2-3,2.9v1.5c0,1.9,1.5,2.9,3.2,2.9C-250.9,396.9-250.3,396.7-249.7,396.3"/>
<path class="st1" d="M-243.3,390c0.6-1.3,1.7-1.6,2.8-1.6c0.4,0,0.7,0.2,0.7,0.7c0,0.4-0.3,0.6-0.7,0.6c-1.9,0-2.8,1.5-2.8,3.5v4.3
	c0,0.4-0.3,0.7-0.7,0.7c-0.4,0-0.7-0.3-0.7-0.7v-8.4c0-0.8,1.3-0.9,1.3,0L-243.3,390L-243.3,390z"/>
<path class="st1" d="M-235.9,388.7c0.6-0.3,1.3-0.4,2-0.4c1.1,0,2.3,0.4,3,1.5v-0.7c0-0.4,0.2-0.7,0.7-0.7c0.4,0,0.7,0.3,0.7,0.7
	v8.4c0,0.4-0.3,0.7-0.7,0.7c-0.4,0-0.7-0.3-0.7-0.7v-0.9c-0.5,1.1-1.9,1.7-3.1,1.7c-0.9,0-1.9-0.2-2.7-0.8c-1.4-1-2.2-2.6-2.1-4.4
	C-238.7,391.1-237.7,389.4-235.9,388.7L-235.9,388.7z M-230.9,394v-1.5c0-1.9-1.3-2.8-3-2.9c-1.3,0-2.7,0.7-3.2,2
	c-0.2,0.4-0.3,0.9-0.3,1.4c0,1.2,0.4,2.4,1.4,3.2c0.6,0.4,1.2,0.7,1.9,0.7C-232.3,397-231,395.9-230.9,394"/>
<path class="st1" d="M-210.6,392.5c0-1.6-1.3-2.8-2.9-2.8c-2,0-3.6,1.5-3.6,3.6v4.2c0,0.4-0.3,0.7-0.7,0.7c-0.4,0-0.7-0.2-0.7-0.7
	v-4.7c0-1.1-0.4-2.1-1.3-2.7c-0.5-0.3-1-0.4-1.6-0.4c-1.8,0-3.5,1.4-3.5,3.5v4.3c0,0.9-1.4,0.9-1.4,0v-8.4c0-0.4,0.3-0.7,0.7-0.7
	c0.4,0,0.7,0.3,0.7,0.7v1.3c0.8-1.4,2.1-2,3.6-2c1.6,0,3.3,0.8,3.8,2.5c0.7-1.7,2.3-2.5,4-2.5c2.2,0,4.4,1.5,4.4,4v5.1
	c0,0.4-0.3,0.7-0.7,0.7c-0.4,0-0.7-0.2-0.7-0.7V392.5z"/>
<path class="st1" d="M-198.5,392.5c0-1.7-1.4-2.9-2.9-2.9c-1.8,0-3.5,1.3-3.5,3.2v4.7c0,0.4-0.2,0.7-0.7,0.7c-0.4,0-0.7-0.3-0.7-0.7
	v-11.3c0-0.8,1.4-0.8,1.4,0v4c0.7-1.3,2.2-1.9,3.6-1.9c2.2,0,4.3,1.5,4.3,4.2v5c0,0.4-0.2,0.7-0.7,0.7c-0.4,0-0.7-0.3-0.7-0.7
	L-198.5,392.5L-198.5,392.5z"/>
<path class="st1" d="M-192.1,388.7c0.6-0.3,1.3-0.4,2-0.4c1.1,0,2.3,0.4,3,1.5v-0.7c0-0.4,0.2-0.7,0.7-0.7c0.4,0,0.7,0.3,0.7,0.7
	v8.4c0,0.4-0.3,0.7-0.7,0.7c-0.4,0-0.7-0.3-0.7-0.7v-0.9c-0.6,1.1-1.9,1.7-3.1,1.7c-0.9,0-1.9-0.2-2.7-0.8c-1.4-1-2.2-2.6-2.1-4.4
	C-194.9,391.1-193.8,389.4-192.1,388.7L-192.1,388.7z M-187,394v-1.5c0-1.9-1.3-2.8-3-2.9c-1.3,0-2.7,0.7-3.2,2
	c-0.2,0.4-0.3,0.9-0.3,1.4c0,1.2,0.4,2.4,1.4,3.2c0.6,0.4,1.2,0.7,1.9,0.7C-188.5,397-187.1,395.9-187,394"/>
<path class="st1" d="M-278.5,398.3c-0.4,0-0.7-0.3-0.7-0.7v-4.3c0-2.4-1.9-3.7-3.8-3.7c-1.9,0-3.8,1.3-3.8,3.7v4.3
	c0,0.4-0.3,0.7-0.7,0.7c-0.4,0-0.7-0.3-0.7-0.7v-4.3c0-3.4,2.6-5.1,5.2-5.1c2.6,0,5.2,1.8,5.2,5.1v4.3
	C-277.7,398-278.1,398.3-278.5,398.3"/>
<path d="M-315.6,409.1c-0.1,0-0.3-0.1-0.4-0.1c-0.5-0.2-0.8-0.7-0.8-1.3c0-2.6,0-5.3,0-7.9c0-1.1-0.2-2.1-0.7-3.1
	c-0.6-1.2-1.5-2.1-2.8-2.8c-0.8-0.4-1.6-0.7-2.5-0.8c-1.5-0.2-3,0-4.4,0.7c-1.2,0.6-2.2,1.5-2.8,2.8c-0.4,0.7-0.6,1.5-0.6,2.3
	c0,0.3-0.1,0.7-0.1,1c0,2.6,0,5.1,0,7.7c0,0.7-0.4,1.2-1.1,1.3c0,0-0.1,0-0.1,0c-0.1,0-0.1,0-0.2,0c0,0,0,0,0,0
	c-0.5-0.1-0.9-0.4-1.1-0.9c0-0.1-0.1-0.2-0.1-0.3c0-2.8,0-5.5,0-8.3c0,0,0,0,0-0.1c0-0.7,0.1-1.4,0.3-2.1c0.4-1.7,1.2-3.1,2.4-4.3
	c0.7-0.7,1.6-1.3,2.5-1.7c1.1-0.5,2.3-0.8,3.6-0.9c0.1,0,0.3,0,0.4,0c0.2,0,0.5,0,0.7,0c0.1,0,0.3,0,0.4,0c0.9,0.1,1.8,0.2,2.7,0.5
	c1.4,0.5,2.7,1.3,3.7,2.4c1.5,1.6,2.3,3.5,2.4,5.7c0,0.2,0,0.3,0,0.5c0,2.7,0,5.5,0,8.2c0,0,0,0,0,0.1c-0.1,0.6-0.5,1-1,1.1
	c-0.1,0-0.1,0-0.2,0C-315.5,409.1-315.6,409.1-315.6,409.1z"/>
<path class="st1" d="M-287.1,410.3c0.2,0.7,1.4,1,2.5,1c0.8,0,2.4-0.3,2.4-1.4c0-1-1.2-1-2.4-1.1c-1.7-0.2-3.4-0.3-3.4-2.2
	c0-1.6,1.9-2.3,3.3-2.3c1.2,0,2.8,0.2,3.4,1.6c0.2,0.7-0.8,1-1,0.4c-0.3-0.9-1.6-1-2.3-1c-0.9,0-2.2,0.4-2.2,1.3c0,1,1.1,1,2.4,1.1
	c1.7,0.2,3.5,0.3,3.5,2.2c0,1.9-2.2,2.4-3.5,2.4c-1.3,0-3.2-0.3-3.5-1.9C-288.3,409.8-287.2,409.5-287.1,410.3"/>
<path class="st1" d="M-275.5,404.4c0.7,0,0.7,1,0,1h-1.7v4.1c0,0.9,0.1,1.8,1.2,1.8c0.2,0,0.6-0.1,0.7-0.2c0.6-0.4,1.2,0.5,0.5,0.9
	c-0.4,0.2-0.8,0.3-1.2,0.3c-1.8,0-2.3-1.4-2.3-2.8v-4.1h-1c-0.7,0-0.7-1,0-1h1v-1.8c0-0.7,1.1-0.7,1.1,0v1.8
	C-277.2,404.4-275.5,404.4-275.5,404.4z"/>
<path class="st1" d="M-270.5,408.9c0,1.4,1.1,2.4,2.4,2.4c1.5,0,2.9-1.2,2.9-2.9v-3.6c0-0.3,0.2-0.5,0.6-0.5c0.4,0,0.6,0.2,0.6,0.5
	v6.9c0,0.7-1.1,0.7-1.1,0v-1c-0.6,1.1-1.7,1.6-2.9,1.6c-1.8,0-3.5-1.2-3.5-3.4v-4.1c0-0.3,0.2-0.5,0.6-0.5c0.3,0,0.6,0.2,0.6,0.5
	C-270.5,404.9-270.5,408.9-270.5,408.9z"/>
<path class="st1" d="M-257.5,404.3c1,0,2,0.4,2.5,1.2v-3.1c0-0.7,1.1-0.7,1.1,0v9.3c0,0.3-0.2,0.5-0.6,0.5c-0.4,0-0.5-0.2-0.5-0.5
	v-0.7c-0.5,1-1.6,1.4-2.5,1.4c-0.5,0-1-0.1-1.5-0.3l0,0c-1.7-0.7-2.5-2.2-2.5-4C-261.4,406-259.8,404.3-257.5,404.3 M-255,409v-1.2
	c0-1.4-1-2.3-2.4-2.4c-1.1,0-2.2,0.6-2.6,1.6c-0.1,0.3-0.2,0.7-0.2,1.1c0,1,0.3,1.9,1.1,2.6c0.4,0.4,1,0.5,1.6,0.6
	C-256.2,411.4-255,410.5-255,409"/>
<path class="st1" d="M-249.4,403.3c0,0.7-1.2,0.7-1.2,0v-0.7c0-0.7,1.2-0.7,1.2,0V403.3z M-250.6,404.9c0-0.7,1.1-0.7,1.1,0v6.9
	c0,0.7-1.1,0.7-1.1,0V404.9z"/>
<path class="st1" d="M-245.8,411c-0.7-0.8-1-1.8-0.9-3c0.2-1.7,1.2-3.1,2.8-3.6c0.4-0.1,0.8-0.1,1.2-0.1c0.4,0,0.7,0,1.1,0.1
	c1.7,0.5,2.7,1.9,2.9,3.6c0.1,1.2-0.2,2.1-0.9,3c-0.8,0.9-1.9,1.4-3.1,1.4C-244,412.4-245.1,411.9-245.8,411 M-242.8,405.3
	c-0.3,0-0.6,0-0.8,0.1c-1.3,0.3-2,1.5-2,2.9c0,0.7,0.2,1.4,0.7,2c0.5,0.6,1.4,1,2.2,1c0.8,0,1.7-0.4,2.2-1c0.4-0.5,0.7-1.3,0.7-1.9
	c0-1.4-0.8-2.6-2.1-2.9C-242.2,405.4-242.5,405.3-242.8,405.3"/>
<path class="st1" d="M-235.2,410.3c0.2,0.7,1.4,1,2.5,1c0.8,0,2.4-0.3,2.4-1.4c0-1-1.2-1-2.4-1.1c-1.7-0.2-3.4-0.3-3.4-2.2
	c0-1.6,1.9-2.3,3.3-2.3c1.2,0,2.8,0.2,3.4,1.6c0.2,0.7-0.8,1-1,0.4c-0.3-0.9-1.6-1-2.3-1c-0.9,0-2.2,0.4-2.2,1.3c0,1,1.1,1,2.4,1.1
	c1.7,0.2,3.5,0.3,3.5,2.2c0,1.9-2.2,2.4-3.5,2.4s-3.2-0.3-3.5-1.9C-236.5,409.8-235.4,409.5-235.2,410.3"/>
</svg>
