<?xml version="1.0" encoding="UTF-8"?>
<svg width="69px" height="87px" viewBox="0 0 69 87" version="1.1" xmlns="http://www.w3.org/2000/svg" xmlns:xlink="http://www.w3.org/1999/xlink">
    <!-- Generator: Sketch 43.1 (39012) - http://www.bohemiancoding.com/sketch -->
    <title>Group 20</title>
    <desc>Created with Sketch.</desc>
    <defs>
        <polygon id="path-1" points="0.104904977 0.69040644 0.104904977 42.5929112 44.7629538 42.5929112 44.7629538 0.69040644 0.104904977 0.69040644"></polygon>
    </defs>
    <g id="Page-1" stroke="none" stroke-width="1" fill="none" fill-rule="evenodd">
        <g id="Desktop-HD-Copy-32" transform="translate(-1033.000000, -3464.000000)">
            <g id="Group-34" transform="translate(252.000000, 3352.000000)">
                <g id="Group-29" transform="translate(0.000000, 112.000000)">
                    <g id="Group-24" transform="translate(702.000000, 0.000000)">
                        <g id="Group-20" transform="translate(79.000000, 0.000000)">
                            <g id="Group-23" transform="translate(0.000000, 0.000000)">
                                <ellipse id="Oval-2-Copy-2" fill="#F0244D" cx="23.5411765" cy="23.6296296" rx="23.5411765" ry="23.6296296"></ellipse>
                                <g id="microphone" transform="translate(23.541176, 5.703704)">
                                    <g id="Group-3" transform="translate(0.000000, 38.647854)">
                                        <mask id="mask-2" fill="white">
                                            <use xlink:href="#path-1"></use>
                                        </mask>
                                        <g id="Clip-2"></g>
                                        <path d="M43.3624724,0.69040644 C42.5896724,0.69040644 41.961991,1.31894401 41.961991,2.08890253 L41.961991,10.4711494 C41.961991,21.2540606 33.1796959,30.0239057 22.3814769,30.0239057 C11.5832579,30.0239057 2.8009629,21.2540606 2.8009629,10.4711494 L2.8009629,2.08890253 C2.8009629,1.31894401 2.17153303,0.69040644 1.40048145,0.69040644 C0.627681448,0.69040644 0,1.31894401 0,2.08890253 L0,10.4711494 C0,22.3243204 9.294581,32.0230043 20.9809955,32.7458225 L20.9809955,39.8046487 L13.9873303,39.8046487 C13.2162787,39.8046487 12.5868489,40.4244565 12.5868489,41.2031447 C12.5868489,41.9731033 13.2162787,42.5929112 13.9873303,42.5929112 L30.7756235,42.5929112 C31.5466751,42.5929112 32.1673629,41.9731033 32.1673629,41.2031447 C32.1673629,40.4244565 31.5466751,39.8046487 30.7756235,39.8046487 L23.7819584,39.8046487 L23.7819584,32.7458225 C35.4666244,32.0230043 44.7629538,22.3243204 44.7629538,10.4711494 L44.7629538,2.08890253 C44.7629538,1.31894401 44.133524,0.69040644 43.3624724,0.69040644 Z" id="Fill-1" fill="#4A4A4A" mask="url(#mask-2)"></path>
                                    </g>
                                    <path d="M22.3814769,64.485001 C30.8630443,64.485001 37.7692887,57.590293 37.7692887,49.1190033 L37.7692887,15.5987455 C37.7692887,7.12745577 30.8630443,0.232747803 22.3814769,0.232747803 C13.8981611,0.232747803 6.99366516,7.12745577 6.99366516,15.5987455 L6.99366516,49.1190033 C6.99366516,57.590293 13.8981611,64.485001 22.3814769,64.485001 Z M9.79462805,15.5987455 C9.79462805,8.662135 15.4420127,3.02973999 22.3814769,3.02973999 C29.3209412,3.02973999 34.9683258,8.662135 34.9683258,15.5987455 L34.9683258,49.1190033 C34.9683258,56.04863 29.3209412,61.6880088 22.3814769,61.6880088 C15.4420127,61.6880088 9.79462805,56.04863 9.79462805,49.1190033 L9.79462805,15.5987455 Z" id="Fill-4" fill="#4A4A4A"></path>
                                </g>
                            </g>
                            <path d="M32.4705882,35.037037 L45.1904625,35.037037" id="Path-6" stroke="#4A4A4A" stroke-width="4"></path>
                            <path d="M32.4705882,27.3333333 L39.7764706,27.3333333" id="Path-6-Copy-2" stroke="#4A4A4A" stroke-width="4"></path>
                            <path d="M32.4705882,49.7037037 L45.1904625,49.7037037" id="Path-6-Copy" stroke="#4A4A4A" stroke-width="4"></path>
                        </g>
                    </g>
                </g>
            </g>
        </g>
    </g>
</svg>