<?xml version="1.0" encoding="UTF-8"?>
<svg width="105px" height="87px" viewBox="0 0 105 87" version="1.1" xmlns="http://www.w3.org/2000/svg" xmlns:xlink="http://www.w3.org/1999/xlink">
    <!-- Generator: Sketch 43.1 (39012) - http://www.bohemiancoding.com/sketch -->
    <title>Group 18</title>
    <desc>Created with Sketch.</desc>
    <defs>
        <polygon id="path-1" points="0.123241274 0.56657079 0.123241274 78.777914 91.8705276 78.777914 91.8705276 0.56657079 0.123241274 0.56657079"></polygon>
    </defs>
    <g id="Page-1" stroke="none" stroke-width="1" fill="none" fill-rule="evenodd">
        <g id="Desktop-HD-Copy-32" transform="translate(-678.000000, -3464.000000)">
            <g id="Group-34" transform="translate(252.000000, 3352.000000)">
                <g id="Group-29" transform="translate(0.000000, 112.000000)">
                    <g id="Group-15" transform="translate(338.000000, 0.000000)">
                        <g id="Group-33">
                            <g id="Group-18" transform="translate(88.000000, 0.000000)">
                                <ellipse id="Oval-2-Copy" fill="#F0244D" cx="31.6701414" cy="23.5934175" rx="23.5495923" ry="23.5934175"></ellipse>
                                <g id="handshake-(1)" transform="translate(0.000000, 8.135661)">
                                    <g id="Group-4">
                                        <mask id="mask-2" fill="white">
                                            <use xlink:href="#path-1"></use>
                                        </mask>
                                        <g id="Clip-2"></g>
                                        <path d="M71.1615657,12.5423755 C70.7918419,12.1573804 70.2536884,11.9894571 69.7237509,12.0611317 L50.5391925,15.0612264 C50.3153042,15.0939919 50.1078481,15.1738579 49.9229862,15.2864895 L34.8711185,12.0775144 C34.3165328,11.9587394 33.7393528,12.1348541 33.3449808,12.5423755 L13.6161068,32.8365317 C12.188562,34.3089331 11.7222992,36.4202626 12.3960182,38.3554772 L15.2367295,46.4506134 C15.7420188,47.8922971 16.6088157,49.1947273 17.7405814,50.2268418 L20.4929699,52.7231664 C20.0349231,53.8269555 18.9668321,56.9151076 19.7781705,60.2346664 C21.8958664,68.9134387 27.3287526,74.2173604 36.851195,76.9369002 C38.7141923,77.4652445 40.6716745,77.6413593 42.4278627,77.6413593 C44.6996101,77.6413593 46.624228,77.352613 47.5957801,77.1764982 C49.1280799,78.2086127 50.9007003,78.777914 52.7226171,78.777914 C53.5093072,78.777914 54.2959974,78.6734738 55.0724174,78.4727849 C65.76976,75.6488049 72.8047827,68.7209411 76.0152179,57.9144566 C76.3993199,57.8509733 76.7690437,57.6912413 77.0340125,57.3635859 L85.4513915,46.9072831 C85.5869569,46.7393597 85.7143062,46.5714363 85.8354935,46.3953215 L90.915088,39.1008933 C92.3754971,36.9957074 92.1413387,34.1328183 90.3522862,32.2836132 L71.1615657,12.5423755 Z M37.7590724,73.7852648 C29.3663416,71.3933805 24.8084685,66.978224 22.9721735,59.4585326 C22.5778014,57.8345906 22.8427702,56.2352227 23.1488193,55.1314336 L44.2415634,74.289035 C42.3477558,74.4262407 39.9322269,74.4016666 37.7590724,73.7852648 Z M73.1580744,56.018151 C72.7246759,57.6113753 72.2111706,59.0981117 71.6175585,60.4988385 L54.7602062,45.5557046 C54.0782711,44.9556856 53.0430444,45.0109775 52.4412162,45.6908624 C51.8311719,46.3707474 51.8969006,47.4028619 52.5788356,48.0028808 L69.828506,63.2982443 C69.925045,63.3863017 70.0462322,63.4334022 70.1571494,63.4989332 C69.2985685,65.0102438 68.3208544,66.3863964 67.2281151,67.6335348 L49.0151088,51.2999133 C48.3413898,50.6998943 47.3061631,50.7469948 46.6961188,51.4186883 C46.0881285,52.0903819 46.1435871,53.1306878 46.817306,53.7307067 L64.8865309,69.9455532 C63.6500101,70.9940504 62.2943561,71.9217248 60.8257309,72.7285762 C60.737408,72.5770356 60.640869,72.4336863 60.5053036,72.3128634 L43.2556332,57.0256913 C42.5798602,56.4195288 41.5466876,56.4830121 40.9366432,57.162897 C40.334815,57.8345906 40.3984897,58.8748965 41.0722086,59.4749154 L57.6810244,74.1845949 C56.5903391,74.608499 55.4421412,74.9853027 54.2384848,75.3047668 C52.2810025,75.8167283 50.2351974,75.3047668 48.7419239,73.9531882 L19.9548163,47.8042397 C19.2235848,47.1386897 18.662837,46.2990728 18.3424096,45.3713984 L15.5016983,37.2762623 C15.2367295,36.5247027 15.4133754,35.6932771 15.9741232,35.1157845 L35.0703586,15.4769392 L53.2279063,19.341225 C54.3268077,19.5726316 55.3456022,20.1173587 56.1569406,20.9016838 L61.805499,26.3571462 C62.9126165,27.4281698 63.4589861,28.9087626 63.3213667,30.4282645 C63.1775852,31.9477664 62.3662468,33.3075363 61.0906996,34.1573925 L59.6878031,35.0850668 C55.323008,31.1880154 51.839388,28.077337 51.839388,28.077337 C51.165669,27.4773181 50.1386584,27.5326099 49.5286141,28.2043035 C48.9185698,28.8678057 48.9678663,29.8999202 49.6333692,30.5081305 L58.3075008,38.4353432 C58.4841467,38.5950753 58.6833867,38.7158982 58.901113,38.7875728 C63.2741242,42.6907677 68.2078832,47.107972 71.3525897,49.9462869 C73.0697515,51.476028 73.7599026,53.79419 73.1580744,56.018151 Z M88.209942,37.2353054 L83.1324015,44.5317815 C83.0522947,44.644413 82.9721879,44.7549967 82.8838649,44.8594369 L76.504075,52.7866496 C76.1425672,50.7879517 75.1402049,48.9223638 73.5524465,47.507302 C70.6706547,44.9085852 66.2894274,40.9869597 62.2142492,37.3397455 L62.9044004,36.8851237 C65.0138802,35.4843968 66.3633721,33.2440531 66.5954765,30.7333936 C66.8275809,28.2124949 65.9135415,25.7653186 64.0916246,24.0041709 L58.4430662,18.5487085 C57.9788574,18.102278 57.4653521,17.7254743 56.9189825,17.3814362 L69.3951075,15.4298387 L87.9942698,34.5649139 C88.692637,35.2837079 88.789176,36.4120712 88.209942,37.2353054 Z" id="Fill-1" fill="#4A4A4A" mask="url(#mask-2)"></path>
                                        <path d="M31.724358,8.93407048 L23.8225383,1.04781465 C23.5164891,0.742685566 23.0995228,0.56657079 22.6579083,0.56657079 C22.2245098,0.56657079 21.8075435,0.742685566 21.4953322,1.04781465 L0.480640969,21.9727074 C-0.160213656,22.6136833 -0.160213656,23.6457978 0.480640969,24.2847258 L8.3762986,32.1730295 C8.68850983,32.4843021 9.10753016,32.6522255 9.54092864,32.6522255 C9.98048919,32.6522255 10.3974555,32.4843021 10.7035047,32.1812209 L31.724358,11.2542803 C32.3672666,10.6133044 32.3672666,9.57504635 31.724358,8.93407048 Z M9.54709071,28.6998823 L3.96426099,23.1338362 L22.6579083,4.51891401 L28.2345759,10.0951993 L9.54709071,28.6998823 Z" id="Fill-3" fill="#4A4A4A" mask="url(#mask-2)"></path>
                                    </g>
                                    <path d="M104.025906,21.9727074 L83.0029982,1.04781465 C82.699003,0.742685566 82.2820367,0.56657079 81.8486382,0.56657079 L81.8404221,0.56657079 C81.4070237,0.56657079 80.9900574,0.742685566 80.6840082,1.04781465 L72.7821885,8.93407048 C72.1392798,9.57504635 72.1392798,10.6133044 72.7821885,11.2542803 L93.8030418,32.1812209 C94.107037,32.4843021 94.5260573,32.6522255 94.9574018,32.6522255 L94.9656179,32.6522255 C95.3990163,32.6522255 95.8159826,32.4843021 96.1220318,32.1730295 L104.025906,24.2847258 C104.66676,23.6457978 104.66676,22.6136833 104.025906,21.9727074 Z M94.9574018,28.6998823 L76.2719706,10.0951993 L81.8486382,4.51891401 L100.534069,23.1338362 L94.9574018,28.6998823 Z" id="Fill-5" fill="#4A4A4A"></path>
                                </g>
                            </g>
                        </g>
                    </g>
                </g>
            </g>
        </g>
    </g>
</svg>